# xmcd CD database file
#
# Track frame offsets:
#	150
#	16485
#	33905
#	51235
#	77056
#	101339
#	115076
#	127385
#	143095
#	160758
#	184695
#	206171
#	221503
#
# Disc length: 3228 seconds
#
# Revision: 1
# Processed by: cddbd v1.5.2PL0 Copyright (c) Steve Scherf et al.
# Submitted via: CDex 1.70beta2
#
DISCID=b40c9a0d
DTITLE=Cyndi Lauper - Memphis Blues - EICP-1442
DYEAR=2011
DGENRE=Classical
TTITLE0=Just Your Fool (feat. Charlie Musselwhite)
TTITLE1=Shattered Dreams (feat. Allen Toussaint)
TTITLE2=Early in the Mornin' (feat. Allen Toussaint and B.B. King)
TTITLE3=Romance in the Dark
TTITLE4=How Blue Can You Get? (feat. Jonny Lang)
TTITLE5=Down Don't Bother Me (feat. Charlie Musselwhite)
TTITLE6=Don't Cry No More
TTITLE7=Rollin' and Tumblin' (feat. Ann Peebles)
TTITLE8=Down So Low
TTITLE9=Mother Earth (feat. Allen Toussaint)
TTITLE10=Crossroads (feat. Jonny Lang)
TTITLE11=Wild Women Don't Have the Blues
TTITLE12=Don't Wanna Cry (feat. TOKU)
EXTD=YEAR: 2011
EXTT0=
EXTT1=
EXTT2=
EXTT3=
EXTT4=
EXTT5=
EXTT6=
EXTT7=
EXTT8=
EXTT9=
EXTT10=
EXTT11=
EXTT12=
PLAYORDER=
